<?xml version="1.0" encoding="utf-8"?>
<!-- Generator: Adobe Illustrator 15.0.2, SVG Export Plug-In . SVG Version: 6.00 Build 0)  -->
<!DOCTYPE svg PUBLIC "-//W3C//DTD SVG 1.1//EN" "http://www.w3.org/Graphics/SVG/1.1/DTD/svg11.dtd">
<svg version="1.1" id="Layer_1" xmlns="http://www.w3.org/2000/svg" xmlns:xlink="http://www.w3.org/1999/xlink" x="0px" y="0px"
	 width="480px" height="50px" viewBox="0 0 480 50" enable-background="new 0 0 480 50" xml:space="preserve">
<path fill="#FFFFFF" d="M22.499,29.506l9.728-20.735l9.728,20.735H22.499z M4.133,48h9.663l4.928-10.688h26.814L50.401,48H60
	L37.41,1.476H27.043L4.133,48z"/>
<path fill="#FFFFFF" d="M120.417,12.803c-1.152-3.2-4.607-12.479-24.638-12.479c-3.584,0-21.694,0-21.694,13.951
	c0,7.104,6.016,11.775,16.767,13.247l11.135,1.537c6.656,0.83,10.111,2.814,10.111,5.822c0,4.031-6.144,6.464-13.567,6.464
	c-12.287,0-15.743-4.928-17.407-8.319l-8.768,2.752c1.088,3.521,5.952,13.375,25.918,13.375c12.415,0,22.91-4.096,22.91-15.104
	c0-7.807-6.144-11.839-16.575-13.439l-11.007-1.664c-9.279-1.152-10.431-3.264-10.431-5.248c0-4.288,6.208-5.824,12.351-5.824
	c11.071,0,14.847,3.583,16.319,7.743L120.417,12.803z"/>
<path fill="#FFFFFF" d="M155.106,48h9.087V9.283h20.799V1.476h-50.685v7.807h20.798L155.106,48L155.106,48z"/>
<path fill="#FFFFFF" d="M210.466,22.146V9.027H228c7.423,0,11.199,1.088,11.199,6.528c0,5.503-3.776,6.591-11.199,6.591H210.466z
	 M201.378,48h9.087V29.697h14.399L238.368,48h11.198l-14.271-18.941c6.849-0.385,12.991-5.121,12.991-13.696
	c0-11.391-7.936-13.887-18.943-13.887h-27.966V48z"/>
<path fill="#FFFFFF" d="M292.576,41.345c-8.703,0-18.623-3.584-18.623-16.767c0-11.199,8-16.447,18.623-16.447
	s18.623,5.248,18.623,16.447C311.199,37.761,301.279,41.345,292.576,41.345z M264.866,25.09c0,9.663,5.694,24.062,27.71,24.062
	c22.015,0,27.71-14.399,27.71-24.062c0-12.735-7.231-24.766-27.71-24.766S264.866,12.354,264.866,25.09z"/>
<path fill="#448CCB" d="M354.795,48h9.473l22.781-46.524h-9.728L359.53,38.593l-17.47-37.117h-9.728L354.795,48z"/>
<path fill="#448CCB" d="M403.819,48h9.088V1.476h-9.088V48z"/>
<path fill="#448CCB" d="M476.84,48v-7.809h-32.382l31.614-33.597v-5.12h-44.285v7.807h30.846l-32.51,34.237V48H476.84z"/>
</svg>
