<?xml version="1.0" encoding="iso-8859-1"?>
<!-- Generator: Adobe Illustrator 15.0.2, SVG Export Plug-In . SVG Version: 6.00 Build 0)  -->
<!DOCTYPE svg PUBLIC "-//W3C//DTD SVG 1.1//EN" "http://www.w3.org/Graphics/SVG/1.1/DTD/svg11.dtd">
<svg version="1.1" xmlns="http://www.w3.org/2000/svg" xmlns:xlink="http://www.w3.org/1999/xlink" x="0px" y="0px" width="1050px"
	 height="200px" viewBox="0 0 1050 200" style="enable-background:new 0 0 1050 200;" xml:space="preserve">
<filter  id="AI_GaussianBlur_7">
	<feGaussianBlur  stdDeviation="8"></feGaussianBlur>
</filter>
<g id="Layer_2_copy">
	<g style="filter:url(#AI_GaussianBlur_7);">
		<path style="fill:#F27052;" d="M107.002,180.6c-24.72,0-45.811-7.062-60.992-20.422c-16.491-14.513-25.207-36.013-25.207-62.177
			c0-48.84,33.046-77.999,88.398-77.999c30.169,0,68.614,9.05,80.441,52.163l0.208,0.751c0.34,1.205,0.096,2.5-0.66,3.499
			C188.434,77.414,187.253,78,186,78h-28.399c-1.739,0-3.279-1.123-3.81-2.78c-0.073-0.228-8.273-22.818-42.99-22.818
			c-34.177,0-52.999,17.331-52.999,48.8c0,34.652,26.551,46.999,51.399,46.999c31.423,0,44.3-18.396,46.719-28.069
			c0.445-1.781,2.045-3.131,3.88-3.131h28.4c1.18,0,2.3,0.622,3.06,1.524c0.76,0.902,1.083,2.146,0.881,3.308
			C188.352,143.762,172.25,180.6,107.002,180.6z"/>
	</g>
	<g style="filter:url(#AI_GaussianBlur_7);">
		<path style="fill:#F27052;" d="M277.501,173c0,2.209-1.791,4-4,4h-28c-2.209,0-4-1.791-4-4V28c0-2.209,1.791-4,4-4h28
			c2.209,0,4,1.791,4,4V173z"/>
	</g>
	<g style="filter:url(#AI_GaussianBlur_7);">
		<path style="fill:#F27052;" d="M512.798,177c-2.209,0-4.297-1.791-4.297-4v-14c0-1.025,0.542-2.012,1.248-2.755L605.082,56
			h-87.083c-2.209,0-4.498-1.789-4.498-3.998v-24.4c0-2.209,2.289-3.602,4.498-3.602h138.397c2.209,0,4.104,1.393,4.104,3.602v16
			c0,1.019-0.441,2.199-1.139,2.941L566.854,145h91.942c2.209,0,3.705,1.392,3.705,3.601V173c0,2.209-1.496,4-3.705,4H512.798z"/>
	</g>
	<g style="filter:url(#AI_GaussianBlur_7);">
		<path style="fill:#F27052;" d="M327.198,177c-2.209,0-3.697-1.791-3.697-4v-14c0-1.025,0.242-2.012,0.948-2.755L419.483,56
			h-87.084c-2.209,0-3.897-1.789-3.897-3.998v-24.4c0-2.209,1.688-3.602,3.897-3.602h138.398c2.209,0,3.705,1.393,3.705,3.602v16
			c0,1.019-0.241,2.199-0.939,2.941L381.254,145h91.942c2.209,0,4.305,1.392,4.305,3.601V173c0,2.209-2.096,4-4.305,4H327.198z"/>
	</g>
	<g style="filter:url(#AI_GaussianBlur_7);">
		<path style="fill:#F27052;" d="M710.799,177c-2.209,0-4.298-1.791-4.298-4V27.602c0-2.209,2.089-3.602,4.298-3.602h28.399
			c2.209,0,4.303,1.393,4.303,3.602V144h101.096c2.209,0,3.904,1.592,3.904,3.801V173c0,2.209-1.695,4-3.904,4H710.799z"/>
	</g>
	<g style="filter:url(#AI_GaussianBlur_7);">
		<path style="fill:#F27052;" d="M896.398,177c-2.209,0-3.897-1.791-3.897-4V27.602c0-2.209,1.688-3.602,3.897-3.602h130.397
			c2.209,0,3.705,1.393,3.705,3.602v24.4c0,2.209-1.496,3.998-3.705,3.998h-98.295v26h84.096c2.209,0,3.904,1.592,3.904,3.801v24.4
			c0,2.209-1.695,3.799-3.904,3.799h-84.096v31h100.695c2.209,0,4.305,1.392,4.305,3.601V173c0,2.209-2.096,4-4.305,4H896.398z"/>
	</g>
</g>
<g id="Layer_2">
	<path style="fill:#FFFFFF;" d="M107.002,180.6c-24.72,0-45.811-7.062-60.992-20.422c-16.491-14.513-25.207-36.013-25.207-62.177
		c0-48.84,33.046-77.999,88.398-77.999c30.169,0,68.614,9.05,80.441,52.163l0.208,0.751c0.34,1.205,0.096,2.5-0.66,3.499
		C188.434,77.414,187.253,78,186,78h-28.399c-1.739,0-3.279-1.123-3.81-2.78c-0.073-0.228-8.273-22.818-42.99-22.818
		c-34.177,0-52.999,17.331-52.999,48.8c0,34.652,26.551,46.999,51.399,46.999c31.423,0,44.3-18.396,46.719-28.069
		c0.445-1.781,2.045-3.131,3.88-3.131h28.4c1.18,0,2.3,0.622,3.06,1.524c0.76,0.902,1.083,2.146,0.881,3.308
		C188.352,143.762,172.25,180.6,107.002,180.6z"/>
	<path style="fill:#FFFFFF;" d="M277.501,173c0,2.209-1.791,4-4,4h-28c-2.209,0-4-1.791-4-4V28c0-2.209,1.791-4,4-4h28
		c2.209,0,4,1.791,4,4V173z"/>
	<path style="fill:#FFFFFF;" d="M512.798,177c-2.209,0-4.297-1.791-4.297-4v-14c0-1.025,0.542-2.012,1.248-2.755L605.082,56h-87.083
		c-2.209,0-4.498-1.789-4.498-3.998v-24.4c0-2.209,2.289-3.602,4.498-3.602h138.397c2.209,0,4.104,1.393,4.104,3.602v16
		c0,1.019-0.441,2.199-1.139,2.941L566.854,145h91.942c2.209,0,3.705,1.392,3.705,3.601V173c0,2.209-1.496,4-3.705,4H512.798z"/>
	<path style="fill:#FFFFFF;" d="M327.198,177c-2.209,0-3.697-1.791-3.697-4v-14c0-1.025,0.242-2.012,0.948-2.755L419.483,56h-87.084
		c-2.209,0-3.897-1.789-3.897-3.998v-24.4c0-2.209,1.688-3.602,3.897-3.602h138.398c2.209,0,3.705,1.393,3.705,3.602v16
		c0,1.019-0.241,2.199-0.939,2.941L381.254,145h91.942c2.209,0,4.305,1.392,4.305,3.601V173c0,2.209-2.096,4-4.305,4H327.198z"/>
	<path style="fill:#FFFFFF;" d="M710.799,177c-2.209,0-4.298-1.791-4.298-4V27.602c0-2.209,2.089-3.602,4.298-3.602h28.399
		c2.209,0,4.303,1.393,4.303,3.602V144h101.096c2.209,0,3.904,1.592,3.904,3.801V173c0,2.209-1.695,4-3.904,4H710.799z"/>
	<path style="fill:#FFFFFF;" d="M896.398,177c-2.209,0-3.897-1.791-3.897-4V27.602c0-2.209,1.688-3.602,3.897-3.602h130.397
		c2.209,0,3.705,1.393,3.705,3.602v24.4c0,2.209-1.496,3.998-3.705,3.998h-98.295v26h84.096c2.209,0,3.904,1.592,3.904,3.801v24.4
		c0,2.209-1.695,3.799-3.904,3.799h-84.096v31h100.695c2.209,0,4.305,1.392,4.305,3.601V173c0,2.209-2.096,4-4.305,4H896.398z"/>
</g>
<g id="Layer_1">
	<path style="fill:#F27052;" d="M188.201,121.201c-2.8,16.199-14.4,55.398-81.199,55.398c-46,0-82.199-25.6-82.199-78.599
		c0-42.399,26.6-73.999,84.398-73.999c64.999,0,74.599,42.199,76.799,50h-28.399c-1.6-5-12.8-25.6-46.799-25.6
		c-40.199,0-56.999,22.6-56.999,52.799c0,33.399,24.2,50.999,55.399,50.999c33.2,0,47.799-19.8,50.599-30.999H188.201z"/>
	<path style="fill:#F27052;" d="M245.001,27.602h28.4V173h-28.4V27.602z"/>
	<path style="fill:#F27052;" d="M327.198,173v-14L428.797,52.002h-96.398v-24.4h138.398v16l-98.799,104.999h101.199V173H327.198z"/>
	<path style="fill:#F27052;" d="M512.798,173v-14L614.396,52.002h-96.397v-24.4h138.397v16l-98.799,104.999h101.198V173H512.798z"/>
	<path style="fill:#F27052;" d="M710.799,27.602h28.399v120.199h105.398V173H710.799V27.602z"/>
	<path style="fill:#F27052;" d="M896.398,27.602h130.397v24.4H924.798v33.799h87.799v24.4h-87.799v38.399h104.398V173H896.398
		V27.602z"/>
</g>
</svg>
